<svg xmlns="http://www.w3.org/2000/svg" viewBox="0 0 512 512" width="512" height="512" xmlns:c2pa="http://c2pa.org/manifest"><metadata><c2pa:manifest>AAAWgmp1bWIAAAAeanVtZGMycGEAEQAQgAAAqgA4m3EDYzJwYQAAABZcanVtYgAAAEdqdW1kYzJtYQARABCAAACqADibcQN1cm46YzJwYTowNmE1ZTg4Yy03MDNhLTRlY2ItYjVhNS1iNjIzZTMxMjJhNmQAAAADl2p1bWIAAAApanVtZGMyYXMAEQAQgAAAqgA4m3EDYzJwYS5hc3NlcnRpb25zAAAAALxqdW1iAAAARGp1bWRjYm9yABEAEIAAAKoAOJtxE2MycGEuaW5ncmVkaWVudC52MwAAAAAYYzJzaA/AM89m+8A7dC+goMf+HywAAABwY2JvcqNpZGM6Zm9ybWF0bWltYWdlL3N2Zyt4bWxqaW5zdGFuY2VJRHgseG1wOmlpZDozZGUxNWNmMS1lYWFlLTQ2ZjItYmY0Yy1hYjQyZjJhZTEzNmNscmVsYXRpb25zaGlwaHBhcmVudE9mAAAB4mp1bWIAAABBanVtZGNib3IAEQAQgAAAqgA4m3ETYzJwYS5hY3Rpb25zLnYyAAAAABhjMnNoQv9NZN5o3qsXsrgeP2eqCgAAAZljYm9yomdhY3Rpb25zgqJmYWN0aW9ua2MycGEub3BlbmVkanBhcmFtZXRlcnOha2luZ3JlZGllbnRzgaJjdXJseC1zZWxmI2p1bWJmPWMycGEuYXNzZXJ0aW9ucy9jMnBhLmluZ3JlZGllbnQudjNkaGFzaFggwvcyRDAsyU2u9N0L0P3RD1y/u+7eK4hxbKV0yeGT9+2kZmFjdGlvbngdY29tLmFudGhyb3BpYy5jbGF1ZGUucHJvdmlkZWRqcGFyYW1ldGVyc6F4H2NvbS5hbnRocm9waWMub3JpZ2luLWNvbmZpZGVuY2VndW5rbm93bmtkZXNjcmlwdGlvbnhmQ2xhdWRlIHByb3ZpZGVkIHRoaXMgZmlsZSBhdCB0aGUgcmVxdWVzdCBvZiBhIHVzZXIgYW5kIG1heSBoYXZlIGNyZWF0ZWQgb3IgbW9kaWZpZWQgdGhlIGZpbGUgY29udGVudHMubXNvZnR3YXJlQWdlbnShZG5hbWVmQ2xhdWRlcmFsbEFjdGlvbnNJbmNsdWRlZPUAAADIanVtYgAAAEBqdW1kY2JvcgARABCAAACqADibcRNjMnBhLmhhc2guZGF0YQAAAAAYYzJzaOAx42EgocswfsXucqq/21QAAACAY2JvcqVjYWxnZnNoYTI1NmNwYWRNAAAAAAAAAAAAAAAAAGRoYXNoWCAbaIcqKZqv9MXSlqM00hjyl4AZx5JRTaeeGDctg3bIZmRuYW1lbmp1bWJmIG1hbmlmZXN0amV4Y2x1c2lvbnOBomVzdGFydBiWZmxlbmd0aBkeBAAAAj5qdW1iAAAAJ2p1bWRjMmNsABEAEIAAAKoAOJtxA2MycGEuY2xhaW0udjIAAAACD2Nib3KlY2FsZ2ZzaGEyNTZpc2lnbmF0dXJleE1zZWxmI2p1bWJmPS9jMnBhL3VybjpjMnBhOjA2YTVlODhjLTcwM2EtNGVjYi1iNWE1LWI2MjNlMzEyMmE2ZC9jMnBhLnNpZ25hdHVyZWppbnN0YW5jZUlEeCx4bXA6aWlkOmFjZDE0MmIyLTljMTktNDE1ZC04YmRjLTg5ZDVhNzAxNGJiNXJjcmVhdGVkX2Fzc2VydGlvbnODomN1cmx4LXNlbGYjanVtYmY9YzJwYS5hc3NlcnRpb25zL2MycGEuaW5ncmVkaWVudC52M2RoYXNoWCDC9zJEMCzJTa703QvQ/dEPXL+77t4riHFspXTJ4ZP37aJjdXJseCpzZWxmI2p1bWJmPWMycGEuYXNzZXJ0aW9ucy9jMnBhLmFjdGlvbnMudjJkaGFzaFggWnOkcnWDIffATpqbTozWdwcqcfpJrWcVEOnHxEWEG+uiY3VybHgpc2VsZiNqdW1iZj1jMnBhLmFzc2VydGlvbnMvYzJwYS5oYXNoLmRhdGFkaGFzaFggBWgBbF1oDXGIuy0t9h8TMXhlTRxbDOnFOoCkyuDdV3N0Y2xhaW1fZ2VuZXJhdG9yX2luZm+jZG5hbWVvQW50aHJvcGljIEZpbGVzZ3ZlcnNpb25lMS4wLjBrc3BlY1ZlcnNpb25lMi40LjAAABA4anVtYgAAAChqdW1kYzJjcwARABCAAACqADibcQNjMnBhLnNpZ25hdHVyZQAAABAIY2JvctKEWQISogEmGCFZAgowggIGMIIBjaADAgECAhRA5aAK7sI50L64g/oGQgU9Z1UTADAKBggqhkjOPQQDAzBJMRcwFQYDVQQKEw5BbnRocm9waWMsIFBCQzEuMCwGA1UEAxMlQW50aHJvcGljIENvbnRlbnQgQ3JlZGVudGlhbHMgUm9vdCBDQTAeFw0yNjA4MDcxODQzNTZaFw0yODA4MDYxOTQzNTZaMEQxFzAVBgNVBAoTDkFudGhyb3BpYywgUEJDMSkwJwYDVQQDEyBBbnRocm9waWMgQ2xhdWRlIENvbnRlbnQgU2lnbmluZzBZMBMGByqGSM49AgEGCCqGSM49AwEHA0IABJh6CmvLUBgFFNU0vUKlOVtE6djd17L5SuwX0LemFisBM3dkd/3cyjxFA3Qo5S46fX0/ihY0VZ7mfb9KF703t5OjWDBWMA4GA1UdDwEB/wQEAwIHgDAVBgNVHSUEDjAMBgorBgEEAYPoXgIBMAwGA1UdEwEB/wQCMAAwHwYDVR0jBBgwFoAUzlHiBIFOZFsj+OPEz5o+nMHXXMIwCgYIKoZIzj0EAwMDZwAwZAIwMXMdFJ4BetLLVY7ORuE9noqbbAZOZn/aArXyTwFAZfKrPzxF2vPoJNf1+UCdg1XGAjBwX1zd9WGqYkqmL5SFqw1QySjr1zJfpJM9+1rdDwSPLMOPOjKuiXjoU/pUUeG9RwmhY3BhZFkNngAAAAAAAAAAAAAAAAAAAAAAAAAAAAAAAAAAAAAAAAAAAAAAAAAAAAAAAAAAAAAAAAAAAAAAAAAAAAAAAAAAAAAAAAAAAAAAAAAAAAAAAAAAAAAAAAAAAAAAAAAAAAAAAAAAAAAAAAAAAAAAAAAAAAAAAAAAAAAAAAAAAAAAAAAAAAAAAAAAAAAAAAAAAAAAAAAAAAAAAAAAAAAAAAAAAAAAAAAAAAAAAAAAAAAAAAAAAAAAAAAAAAAAAAAAAAAAAAAAAAAAAAAAAAAAAAAAAAAAAAAAAAAAAAAAAAAAAAAAAAAAAAAAAAAAAAAAAAAAAAAAAAAAAAAAAAAAAAAAAAAAAAAAAAAAAAAAAAAAAAAAAAAAAAAAAAAAAAAAAAAAAAAAAAAAAAAAAAAAAAAAAAAAAAAAAAAAAAAAAAAAAAAAAAAAAAAAAAAAAAAAAAAAAAAAAAAAAAAAAAAAAAAAAAAAAAAAAAAAAAAAAAAAAAAAAAAAAAAAAAAAAAAAAAAAAAAAAAAAAAAAAAAAAAAAAAAAAAAAAAAAAAAAAAAAAAAAAAAAAAAAAAAAAAAAAAAAAAAAAAAAAAAAAAAAAAAAAAAAAAAAAAAAAAAAAAAAAAAAAAAAAAAAAAAAAAAAAAAAAAAAAAAAAAAAAAAAAAAAAAAAAAAAAAAAAAAAAAAAAAAAAAAAAAAAAAAAAAAAAAAAAAAAAAAAAAAAAAAAAAAAAAAAAAAAAAAAAAAAAAAAAAAAAAAAAAAAAAAAAAAAAAAAAAAAAAAAAAAAAAAAAAAAAAAAAAAAAAAAAAAAAAAAAAAAAAAAAAAAAAAAAAAAAAAAAAAAAAAAAAAAAAAAAAAAAAAAAAAAAAAAAAAAAAAAAAAAAAAAAAAAAAAAAAAAAAAAAAAAAAAAAAAAAAAAAAAAAAAAAAAAAAAAAAAAAAAAAAAAAAAAAAAAAAAAAAAAAAAAAAAAAAAAAAAAAAAAAAAAAAAAAAAAAAAAAAAAAAAAAAAAAAAAAAAAAAAAAAAAAAAAAAAAAAAAAAAAAAAAAAAAAAAAAAAAAAAAAAAAAAAAAAAAAAAAAAAAAAAAAAAAAAAAAAAAAAAAAAAAAAAAAAAAAAAAAAAAAAAAAAAAAAAAAAAAAAAAAAAAAAAAAAAAAAAAAAAAAAAAAAAAAAAAAAAAAAAAAAAAAAAAAAAAAAAAAAAAAAAAAAAAAAAAAAAAAAAAAAAAAAAAAAAAAAAAAAAAAAAAAAAAAAAAAAAAAAAAAAAAAAAAAAAAAAAAAAAAAAAAAAAAAAAAAAAAAAAAAAAAAAAAAAAAAAAAAAAAAAAAAAAAAAAAAAAAAAAAAAAAAAAAAAAAAAAAAAAAAAAAAAAAAAAAAAAAAAAAAAAAAAAAAAAAAAAAAAAAAAAAAAAAAAAAAAAAAAAAAAAAAAAAAAAAAAAAAAAAAAAAAAAAAAAAAAAAAAAAAAAAAAAAAAAAAAAAAAAAAAAAAAAAAAAAAAAAAAAAAAAAAAAAAAAAAAAAAAAAAAAAAAAAAAAAAAAAAAAAAAAAAAAAAAAAAAAAAAAAAAAAAAAAAAAAAAAAAAAAAAAAAAAAAAAAAAAAAAAAAAAAAAAAAAAAAAAAAAAAAAAAAAAAAAAAAAAAAAAAAAAAAAAAAAAAAAAAAAAAAAAAAAAAAAAAAAAAAAAAAAAAAAAAAAAAAAAAAAAAAAAAAAAAAAAAAAAAAAAAAAAAAAAAAAAAAAAAAAAAAAAAAAAAAAAAAAAAAAAAAAAAAAAAAAAAAAAAAAAAAAAAAAAAAAAAAAAAAAAAAAAAAAAAAAAAAAAAAAAAAAAAAAAAAAAAAAAAAAAAAAAAAAAAAAAAAAAAAAAAAAAAAAAAAAAAAAAAAAAAAAAAAAAAAAAAAAAAAAAAAAAAAAAAAAAAAAAAAAAAAAAAAAAAAAAAAAAAAAAAAAAAAAAAAAAAAAAAAAAAAAAAAAAAAAAAAAAAAAAAAAAAAAAAAAAAAAAAAAAAAAAAAAAAAAAAAAAAAAAAAAAAAAAAAAAAAAAAAAAAAAAAAAAAAAAAAAAAAAAAAAAAAAAAAAAAAAAAAAAAAAAAAAAAAAAAAAAAAAAAAAAAAAAAAAAAAAAAAAAAAAAAAAAAAAAAAAAAAAAAAAAAAAAAAAAAAAAAAAAAAAAAAAAAAAAAAAAAAAAAAAAAAAAAAAAAAAAAAAAAAAAAAAAAAAAAAAAAAAAAAAAAAAAAAAAAAAAAAAAAAAAAAAAAAAAAAAAAAAAAAAAAAAAAAAAAAAAAAAAAAAAAAAAAAAAAAAAAAAAAAAAAAAAAAAAAAAAAAAAAAAAAAAAAAAAAAAAAAAAAAAAAAAAAAAAAAAAAAAAAAAAAAAAAAAAAAAAAAAAAAAAAAAAAAAAAAAAAAAAAAAAAAAAAAAAAAAAAAAAAAAAAAAAAAAAAAAAAAAAAAAAAAAAAAAAAAAAAAAAAAAAAAAAAAAAAAAAAAAAAAAAAAAAAAAAAAAAAAAAAAAAAAAAAAAAAAAAAAAAAAAAAAAAAAAAAAAAAAAAAAAAAAAAAAAAAAAAAAAAAAAAAAAAAAAAAAAAAAAAAAAAAAAAAAAAAAAAAAAAAAAAAAAAAAAAAAAAAAAAAAAAAAAAAAAAAAAAAAAAAAAAAAAAAAAAAAAAAAAAAAAAAAAAAAAAAAAAAAAAAAAAAAAAAAAAAAAAAAAAAAAAAAAAAAAAAAAAAAAAAAAAAAAAAAAAAAAAAAAAAAAAAAAAAAAAAAAAAAAAAAAAAAAAAAAAAAAAAAAAAAAAAAAAAAAAAAAAAAAAAAAAAAAAAAAAAAAAAAAAAAAAAAAAAAAAAAAAAAAAAAAAAAAAAAAAAAAAAAAAAAAAAAAAAAAAAAAAAAAAAAAAAAAAAAAAAAAAAAAAAAAAAAAAAAAAAAAAAAAAAAAAAAAAAAAAAAAAAAAAAAAAAAAAAAAAAAAAAAAAAAAAAAAAAAAAAAAAAAAAAAAAAAAAAAAAAAAAAAAAAAAAAAAAAAAAAAAAAAAAAAAAAAAAAAAAAAAAAAAAAAAAAAAAAAAAAAAAAAAAAAAAAAAAAAAAAAAAAAAAAAAAAAAAAAAAAAAAAAAAAAAAAAAAAAAAAAAAAAAAAAAAAAAAAAAAAAAAAAAAAAAAAAAAAAAAAAAAAAAAAAAAAAAAAAAAAAAAAAAAAAAAAAAAAAAAAAAAAAAAAAAAAAAAAAAAAAAAAAAAAAAAAAAAAAAAAAAAAAAAAAAAAAAAAAAAAAAAAAAAAAAAAAAAAAAAAAAAAAAAAAAAAAAAAAAAAAAAAAAAAAAAAAAAAAAAAAAAAAAAAAAAAAAAAAAAAAAAAAAAAAAAAAAAAAAAAAAAAAAAAAAAAAAAAAAAAAAAAAAAAAAAAAAAAAAAAAAAAAAAAAAAAAAAAAAAAAAAAAAAAAAAAAAAAAAAAAAAAAAAAAAAAAAAAAAAAAAAAAAAAAAAAAAAAAAAAAAAAAAAAAAAAAAAAAAAAAAAAAAAAAAAAAAAAAAAAAAAAAAAAAAAAAAAAAAAAAAAAAAAAAAAAAAAAAAAAAAAAAAAAAAAAAAAAAAAAAAAAAAAAAAAAAAAAAAAAAAAAAAAAAAAAAAAAAAAAAAAAAAAAAAAAAAAAAAAAAAAAAAAAAAAAAAAAAAAAAAAAAAAAAAAAAAAAAAAAAAAAAAAAAAAAAAAAAAAAAAAAAAAAAAAAAAAAAAAAAAAAAAAAAAAAAAAAAAAAAAAAAAAAAAAAAAAAAAAAAAAAAAAAAAAAAAAAAAAAAAAAAAAAAAAAAAAAAAAAAAAAAAAAAAAAAAAAAAAAAAAAAAAAAAAAAAAAAAAAAAAAAAAAAAAAAAAAAAAAAAAAAAAAAAAAAAAAAAAAAAAAAAAAAAAAAAAAAAAAAAAAAAAAAAAAAAAAAAAAAAAAAAAAAAAAAAAAAAAAAAAAAAAAAAAAAAAAAAAAAAAAAAAAAAAAAAAAAAAAAAAAAAAAAAAAAAAAAAAAAAAAAAAAAAAAAAAAAAAAAAAAAAAAAAAAAAAAAAAAAAAAAAAAAAAAAAAAAAAAAAAAAAAAAAAAAAAAAAAAAAAAAAAAAAAAAAAAAAAAAAAAAAAAAAAAAAAAAAAAAAAAAAAAAAAAAAAAAAAAAAAAAAAAAAAAAAAAAAAAAAAAAAAAAAAAAAAAAAAAAAAAAAAAAAAAAAAAAAAAAAAAAAAAAAAAAAAAAAAAAAAAAAAAAAAAAAAAAAAAAAAAAAAAAAAAAAAAAAAAAAAAAAAAAAAAAAAAAAAAAAAAAAAAAAAAAAAAAAAAAAAAAAAAAAAAAAAAAAAAAAAAAAAAAAAAAAAAAAAAAAAAAAAAAAAAAAAAAAAAAAAAAAAAAAAAAAAAAAAAAAAAAAAAAAAAAAAAAAAAAAAAAAAAAAAAAAAAAAAAAAAAAAAAAAAAAAAAAAAAAAAAAAAAAAAAAAAAAAAAAAAAAAAAAAAAAAAAAAAAAAAAAAAAAAAAAAAAAAAAAAAAAAAAAAAAAAAAAAAAAAAAAAAAAAAAAAAAAAAAAAAAAAAAAAAAAAAAAAAAAAAAAAAAAAAAAAAAAAAAAAAAAAAAAAAAAAAAAAAAAAAAAAAAAAAAAAAAAAAAAAAAAAAAAAAAAAAAAAAAAAAAAAAAAAAAAAAAAAAAAPZYQGIfwkEucdcioqPkBkxHFOx4olpuqAmDv5ehnoNnebDptB/yYu5cEL1spMIhXiFnGdvdvQk73/XtdX49WfXwv4E=</c2pa:manifest></metadata><defs>
<linearGradient id="bg" x1="0" y1="0" x2="1" y2="1"><stop offset="0" stop-color="#5E8537"/><stop offset=".5" stop-color="#344F1F"/><stop offset="1" stop-color="#1B2D0F"/></linearGradient>
<radialGradient id="gO" cx=".72" cy=".82" r=".52"><stop offset="0" stop-color="#F4991A" stop-opacity="1"/><stop offset=".55" stop-color="#F4991A" stop-opacity=".4"/><stop offset="1" stop-color="#F4991A" stop-opacity="0"/></radialGradient>
<radialGradient id="gL" cx=".14" cy=".1" r=".55"><stop offset="0" stop-color="#C4DE86" stop-opacity=".7"/><stop offset="1" stop-color="#C4DE86" stop-opacity="0"/></radialGradient>
<linearGradient id="sheen" x1="0" y1="0" x2="0" y2="1"><stop offset="0" stop-color="#fff" stop-opacity=".34"/><stop offset="1" stop-color="#fff" stop-opacity="0"/></linearGradient>
<linearGradient id="rim" x1="0" y1="0" x2="1" y2="1"><stop offset="0" stop-color="#fff" stop-opacity=".95"/><stop offset=".5" stop-color="#fff" stop-opacity=".12"/><stop offset="1" stop-color="#fff" stop-opacity=".5"/></linearGradient>
<linearGradient id="pane" x1="0" y1="0" x2="1" y2="1"><stop offset="0" stop-color="#fff" stop-opacity=".80"/><stop offset="1" stop-color="#fff" stop-opacity=".40"/></linearGradient>
<radialGradient id="coin" cx=".34" cy=".26" r=".9"><stop offset="0" stop-color="#FFD9A0"/><stop offset=".5" stop-color="#F4991A"/><stop offset="1" stop-color="#C97B0E"/></radialGradient>
<linearGradient id="spec" x1="0" y1="0" x2="0" y2="1"><stop offset="0" stop-color="#fff" stop-opacity=".8"/><stop offset="1" stop-color="#fff" stop-opacity="0"/></linearGradient>
<clipPath id="tile"><rect width="512" height="512" rx="112"/></clipPath>
</defs><g clip-path="url(#tile)"><rect width="512" height="512" fill="url(#bg)"/><rect width="512" height="512" fill="url(#gL)"/><rect width="512" height="512" fill="url(#gO)"/><path d="M0 0 H512 V236 Q256 322 0 236 Z" fill="url(#sheen)"/></g><rect x="3" y="3" width="506" height="506" rx="109" fill="none" stroke="url(#rim)" stroke-width="5"/><g transform="translate(223.5 209.0) scale(1.1) translate(-256 -256)">
  <g transform="translate(8.0 10.0)" fill="#08130A" fill-opacity="0.075"><path d="M120 150 Q188 134 256 162 L256 378 Q188 352 120 366 Z"/><path d="M256 162 Q324 134 392 150 L392 366 Q324 352 256 378 Z"/></g><g transform="translate(10.2 13.2)" fill="#08130A" fill-opacity="0.075"><path d="M120 150 Q188 134 256 162 L256 378 Q188 352 120 366 Z"/><path d="M256 162 Q324 134 392 150 L392 366 Q324 352 256 378 Z"/></g><g transform="translate(12.5 16.4)" fill="#08130A" fill-opacity="0.075"><path d="M120 150 Q188 134 256 162 L256 378 Q188 352 120 366 Z"/><path d="M256 162 Q324 134 392 150 L392 366 Q324 352 256 378 Z"/></g><g transform="translate(14.7 19.6)" fill="#08130A" fill-opacity="0.075"><path d="M120 150 Q188 134 256 162 L256 378 Q188 352 120 366 Z"/><path d="M256 162 Q324 134 392 150 L392 366 Q324 352 256 378 Z"/></g><g transform="translate(17.0 22.8)" fill="#08130A" fill-opacity="0.075"><path d="M120 150 Q188 134 256 162 L256 378 Q188 352 120 366 Z"/><path d="M256 162 Q324 134 392 150 L392 366 Q324 352 256 378 Z"/></g><g transform="translate(19.2 26.0)" fill="#08130A" fill-opacity="0.075"><path d="M120 150 Q188 134 256 162 L256 378 Q188 352 120 366 Z"/><path d="M256 162 Q324 134 392 150 L392 366 Q324 352 256 378 Z"/></g>
  <g fill="url(#pane)" stroke="url(#rim)" stroke-width="4" stroke-linejoin="round"><path d="M120 150 Q188 134 256 162 L256 378 Q188 352 120 366 Z"/><path d="M256 162 Q324 134 392 150 L392 366 Q324 352 256 378 Z"/></g>
  <path d="M256 168 L256 372" stroke="#fff" stroke-opacity=".85" stroke-width="4"/>
  <g stroke="#344F1F" stroke-opacity=".62" stroke-width="10" stroke-linecap="round" fill="none">
    <path d="M146 204 L226 210"/><path d="M146 242 L226 248"/><path d="M146 280 L226 286"/>
    <path d="M286 210 L366 204"/><path d="M286 248 L366 242"/><path d="M286 286 L330 283"/>
  </g>
  <g transform="translate(7.0 9.0)" fill="#08130A" fill-opacity="0.075"><circle cx="372" cy="372" r="71"/></g><g transform="translate(9.1 12.0)" fill="#08130A" fill-opacity="0.075"><circle cx="372" cy="372" r="71"/></g><g transform="translate(11.2 15.0)" fill="#08130A" fill-opacity="0.075"><circle cx="372" cy="372" r="71"/></g><g transform="translate(13.3 18.0)" fill="#08130A" fill-opacity="0.075"><circle cx="372" cy="372" r="71"/></g><g transform="translate(15.4 21.0)" fill="#08130A" fill-opacity="0.075"><circle cx="372" cy="372" r="71"/></g>
  <clipPath id="cc62"><circle cx="372" cy="372" r="66"/></clipPath>
  <circle cx="372" cy="372" r="71" fill="url(#coin)" stroke="#1B2D0F" stroke-opacity=".45" stroke-width="3"/>
  <circle cx="372" cy="372" r="69" fill="none" stroke="url(#rim)" stroke-width="4.3"/>
  <circle cx="372" cy="372" r="53.0" fill="none" stroke="#fff" stroke-opacity=".4" stroke-width="2"/>
  <ellipse cx="359.6" cy="339.8" rx="38.4" ry="18.6" fill="url(#spec)" clip-path="url(#cc62)" transform="rotate(-24 372 372)"/>
  <path d="M338.00 349.60Q339.47 349.66 341.93 349.71Q344.39 349.77 346.84 349.77Q349.52 349.77 352.00 349.71Q354.48 349.66 355.52 349.66Q360.87 349.66 364.33 350.75Q367.80 351.84 369.54 353.94Q371.29 356.04 371.29 359.15Q371.29 361.12 370.50 363.00Q369.71 364.88 367.83 366.47Q365.94 368.05 362.64 368.98Q359.34 369.90 354.32 369.90H349.08V368.81H353.77Q356.77 368.81 358.33 367.58Q359.88 366.36 360.46 364.31Q361.03 362.26 361.03 359.75Q361.03 355.44 359.67 353.07Q358.30 350.69 355.03 350.69Q353.01 350.69 352.43 351.62Q351.86 352.55 351.86 355.39V382.46Q351.86 384.42 352.16 385.40Q352.46 386.38 353.31 386.71Q354.15 387.04 355.85 387.15V388.24Q354.32 388.13 351.94 388.10Q349.57 388.08 347.17 388.08Q344.39 388.08 341.93 388.10Q339.47 388.13 338.00 388.24V387.15Q339.69 387.04 340.54 386.71Q341.38 386.38 341.68 385.40Q341.98 384.42 341.98 382.46V355.39Q341.98 353.37 341.68 352.41Q341.38 351.46 340.54 351.10Q339.69 350.75 338.00 350.69ZM348.86 368.98Q350.99 369.03 352.74 369.19Q354.48 369.36 355.87 369.49Q357.26 369.63 358.30 369.69Q363.70 370.01 366.35 371.73Q369.00 373.45 369.71 376.83L370.85 382.51Q371.35 384.58 371.89 385.43Q372.44 386.28 373.42 386.22Q374.02 386.22 374.46 385.98Q374.89 385.73 375.33 385.24L376.09 385.95Q374.51 387.64 372.65 388.32Q370.80 389.00 368.34 389.00Q365.12 389.00 363.08 387.75Q361.03 386.49 360.48 383.11L359.56 377.65Q359.23 375.42 358.71 373.67Q358.19 371.92 357.32 370.91Q356.45 369.90 354.86 369.90H348.97ZM387.99 359.43V392.61Q387.99 395.23 389.27 396.10Q390.56 396.97 392.79 396.97V398.12Q391.32 398.06 388.70 397.98Q386.08 397.90 383.19 397.90Q381.11 397.90 379.07 397.98Q377.02 398.06 375.98 398.12V396.97Q377.73 396.97 378.44 396.18Q379.15 395.39 379.15 393.15V365.97Q379.15 363.52 378.44 362.34Q377.73 361.17 375.87 361.17V360.03Q377.62 360.19 379.26 360.19Q381.77 360.19 383.95 360.00Q386.13 359.81 387.99 359.43ZM396.34 359.21Q399.12 359.21 401.28 360.71Q403.43 362.21 404.72 365.24Q406.00 368.27 406.00 372.85Q406.00 377.16 405.04 380.22Q404.09 383.27 402.37 385.24Q400.65 387.20 398.33 388.10Q396.01 389.00 393.34 389.00Q391.32 389.00 389.60 388.43Q387.88 387.86 386.90 386.60L387.44 385.89Q387.94 386.66 388.81 387.04Q389.68 387.42 390.66 387.42Q392.90 387.42 394.24 385.87Q395.58 384.31 396.18 381.31Q396.78 378.31 396.78 374.00Q396.78 369.25 396.23 366.60Q395.69 363.95 394.76 362.86Q393.83 361.77 392.57 361.77Q390.83 361.77 389.44 363.11Q388.04 364.45 387.88 366.74L387.77 364.45Q388.92 361.83 391.16 360.52Q393.39 359.21 396.34 359.21Z" fill="#344F1F"/>
</g></svg>